{
    "asset" : {
        "generator" : "Khronos glTF Blender I/O v1.1.45",
        "version" : "2.0"
    },
    "scene" : 0,
    "scenes" : [
        {
            "name" : "Scene",
            "nodes" : [
                0
            ]
        }
    ],
    "nodes" : [
        {
            "mesh" : 0,
            "name" : "Cylinder.008"
        }
    ],
    "materials" : [
        {
            "doubleSided" : true,
            "emissiveFactor" : [
                0,
                0,
                0
            ],
            "name" : "Drevo.suche.001",
            "pbrMetallicRoughness" : {
                "baseColorTexture" : {
                    "index" : 0,
                    "texCoord" : 0
                },
                "metallicFactor" : 0,
                "roughnessFactor" : 0.5
            }
        },
        {
            "doubleSided" : true,
            "emissiveFactor" : [
                0,
                0,
                0
            ],
            "name" : "WhtStoneMaterial",
            "pbrMetallicRoughness" : {
                "baseColorTexture" : {
                    "index" : 1,
                    "texCoord" : 0
                },
                "metallicFactor" : 0,
                "roughnessFactor" : 0.20000000298023224
            }
        }
    ],
    "meshes" : [
        {
            "name" : "Cylinder.013",
            "primitives" : [
                {
                    "attributes" : {
                        "POSITION" : 0,
                        "NORMAL" : 1,
                        "TEXCOORD_0" : 2
                    },
                    "indices" : 3,
                    "material" : 0
                },
                {
                    "attributes" : {
                        "POSITION" : 4,
                        "NORMAL" : 5,
                        "TEXCOORD_0" : 6
                    },
                    "indices" : 7,
                    "material" : 1
                }
            ]
        }
    ],
    "textures" : [
        {
            "source" : 0
        },
        {
            "source" : 1
        }
    ],
    "images" : [
        {
            "bufferView" : 4,
            "mimeType" : "image/jpeg",
            "name" : "WoodFine22_COL_3K - dark"
        },
        {
            "bufferView" : 9,
            "mimeType" : "image/jpeg",
            "name" : "clam"
        }
    ],
    "accessors" : [
        {
            "bufferView" : 0,
            "componentType" : 5126,
            "count" : 1092,
            "max" : [
                0.07092606276273727,
                0.07622693479061127,
                0.13044531643390656
            ],
            "min" : [
                -0.07933521270751953,
                0.0007718451670370996,
                -0.1443185806274414
            ],
            "type" : "VEC3"
        },
        {
            "bufferView" : 1,
            "componentType" : 5126,
            "count" : 1092,
            "type" : "VEC3"
        },
        {
            "bufferView" : 2,
            "componentType" : 5126,
            "count" : 1092,
            "type" : "VEC2"
        },
        {
            "bufferView" : 3,
            "componentType" : 5123,
            "count" : 4584,
            "type" : "SCALAR"
        },
        {
            "bufferView" : 5,
            "componentType" : 5126,
            "count" : 1253,
            "max" : [
                0.057089999318122864,
                0.08206669241189957,
                0.11660929769277573
            ],
            "min" : [
                -0.0671667605638504,
                0.04473821446299553,
                -0.005979914218187332
            ],
            "type" : "VEC3"
        },
        {
            "bufferView" : 6,
            "componentType" : 5126,
            "count" : 1253,
            "type" : "VEC3"
        },
        {
            "bufferView" : 7,
            "componentType" : 5126,
            "count" : 1253,
            "type" : "VEC2"
        },
        {
            "bufferView" : 8,
            "componentType" : 5123,
            "count" : 4947,
            "type" : "SCALAR"
        }
    ],
    "bufferViews" : [
        {
            "buffer" : 0,
            "byteLength" : 13104,
            "byteOffset" : 0
        },
        {
            "buffer" : 0,
            "byteLength" : 13104,
            "byteOffset" : 13104
        },
        {
            "buffer" : 0,
            "byteLength" : 8736,
            "byteOffset" : 26208
        },
        {
            "buffer" : 0,
            "byteLength" : 9168,
            "byteOffset" : 34944
        },
        {
            "buffer" : 0,
            "byteLength" : 375095,
            "byteOffset" : 44112
        },
        {
            "buffer" : 0,
            "byteLength" : 15036,
            "byteOffset" : 419208
        },
        {
            "buffer" : 0,
            "byteLength" : 15036,
            "byteOffset" : 434244
        },
        {
            "buffer" : 0,
            "byteLength" : 10024,
            "byteOffset" : 449280
        },
        {
            "buffer" : 0,
            "byteLength" : 9894,
            "byteOffset" : 459304
        },
        {
            "buffer" : 0,
            "byteLength" : 9048,
            "byteOffset" : 469200
        }
    ],
    "buffers" : [
        {
            "byteLength" : 478248,
            "uri" : "data:application/octet-stream;base64,"
        }
    ]
}
