{
    "asset" : {
        "generator" : "Khronos glTF Blender I/O v1.1.45",
        "version" : "2.0"
    },
    "scene" : 0,
    "scenes" : [
        {
            "name" : "Scene",
            "nodes" : [
                0
            ]
        }
    ],
    "nodes" : [
        {
            "mesh" : 0,
            "name" : "Cylinder.004",
            "scale" : [
                0.7529652118682861,
                0.7529652118682861,
                0.7529652118682861
            ]
        }
    ],
    "materials" : [
        {
            "doubleSided" : true,
            "emissiveFactor" : [
                0,
                0,
                0
            ],
            "name" : "Drevo.suche.001",
            "pbrMetallicRoughness" : {
                "baseColorTexture" : {
                    "index" : 0,
                    "texCoord" : 0
                },
                "metallicFactor" : 0,
                "roughnessFactor" : 0.5
            }
        }
    ],
    "meshes" : [
        {
            "name" : "Cylinder.002",
            "primitives" : [
                {
                    "attributes" : {
                        "POSITION" : 0,
                        "NORMAL" : 1,
                        "TEXCOORD_0" : 2
                    },
                    "indices" : 3,
                    "material" : 0
                }
            ]
        }
    ],
    "textures" : [
        {
            "source" : 0
        }
    ],
    "images" : [
        {
            "bufferView" : 4,
            "mimeType" : "image/jpeg",
            "name" : "WoodFine22_COL_3K - dark"
        }
    ],
    "accessors" : [
        {
            "bufferView" : 0,
            "componentType" : 5126,
            "count" : 12780,
            "max" : [
                0.12727810442447662,
                0.10123565047979355,
                0.17324428260326385
            ],
            "min" : [
                -0.0722854807972908,
                -0.0005274442955851555,
                -0.193160280585289
            ],
            "type" : "VEC3"
        },
        {
            "bufferView" : 1,
            "componentType" : 5126,
            "count" : 12780,
            "type" : "VEC3"
        },
        {
            "bufferView" : 2,
            "componentType" : 5126,
            "count" : 12780,
            "type" : "VEC2"
        },
        {
            "bufferView" : 3,
            "componentType" : 5123,
            "count" : 60672,
            "type" : "SCALAR"
        }
    ],
    "bufferViews" : [
        {
            "buffer" : 0,
            "byteLength" : 153360,
            "byteOffset" : 0
        },
        {
            "buffer" : 0,
            "byteLength" : 153360,
            "byteOffset" : 153360
        },
        {
            "buffer" : 0,
            "byteLength" : 102240,
            "byteOffset" : 306720
        },
        {
            "buffer" : 0,
            "byteLength" : 121344,
            "byteOffset" : 408960
        },
        {
            "buffer" : 0,
            "byteLength" : 375095,
            "byteOffset" : 530304
        }
    ],
    "buffers" : [
        {
            "byteLength" : 905400,
            "uri" : "data:application/octet-stream;base64,"
        }
    ]
}
