{
    "asset" : {
        "generator" : "Khronos glTF Blender I/O v1.1.45",
        "version" : "2.0"
    },
    "scene" : 0,
    "scenes" : [
        {
            "name" : "Scene",
            "nodes" : [
                0
            ]
        }
    ],
    "nodes" : [
        {
            "mesh" : 0,
            "name" : "Icosphere.002",
            "scale" : [
                0.010623235255479813,
                0.00411664554849267,
                0.010623235255479813
            ],
            "translation" : [
                0,
                -0.00018684612587094307,
                0
            ]
        }
    ],
    "materials" : [
        {
            "doubleSided" : true,
            "emissiveFactor" : [
                0,
                0,
                0
            ],
            "name" : "WhtStoneMaterial",
            "pbrMetallicRoughness" : {
                "baseColorTexture" : {
                    "index" : 0,
                    "texCoord" : 0
                },
                "metallicFactor" : 0,
                "roughnessFactor" : 0.5
            }
        }
    ],
    "meshes" : [
        {
            "name" : "Icosphere.017",
            "primitives" : [
                {
                    "attributes" : {
                        "POSITION" : 0,
                        "NORMAL" : 1,
                        "TEXCOORD_0" : 2
                    },
                    "indices" : 3,
                    "material" : 0
                }
            ]
        }
    ],
    "textures" : [
        {
            "source" : 0
        }
    ],
    "images" : [
        {
            "bufferView" : 4,
            "mimeType" : "image/jpeg",
            "name" : "clam"
        }
    ],
    "accessors" : [
        {
            "bufferView" : 0,
            "componentType" : 5126,
            "count" : 178,
            "max" : [
                1,
                1.9932948350906372,
                0.9999999403953552
            ],
            "min" : [
                -0.9999999403953552,
                -0.006705164909362793,
                -0.9999999403953552
            ],
            "type" : "VEC3"
        },
        {
            "bufferView" : 1,
            "componentType" : 5126,
            "count" : 178,
            "type" : "VEC3"
        },
        {
            "bufferView" : 2,
            "componentType" : 5126,
            "count" : 178,
            "type" : "VEC2"
        },
        {
            "bufferView" : 3,
            "componentType" : 5123,
            "count" : 960,
            "type" : "SCALAR"
        }
    ],
    "bufferViews" : [
        {
            "buffer" : 0,
            "byteLength" : 2136,
            "byteOffset" : 0
        },
        {
            "buffer" : 0,
            "byteLength" : 2136,
            "byteOffset" : 2136
        },
        {
            "buffer" : 0,
            "byteLength" : 1424,
            "byteOffset" : 4272
        },
        {
            "buffer" : 0,
            "byteLength" : 1920,
            "byteOffset" : 5696
        },
        {
            "buffer" : 0,
            "byteLength" : 27680,
            "byteOffset" : 7616
        }
    ],
    "buffers" : [
        {
            "byteLength" : 35296,
            "uri" : "data:application/octet-stream;base64,"
        }
    ]
}
