{
    "asset" : {
        "generator" : "Khronos glTF Blender I/O v1.1.45",
        "version" : "2.0"
    },
    "scene" : 0,
    "scenes" : [
        {
            "name" : "Scene",
            "nodes" : [
                0
            ]
        }
    ],
    "nodes" : [
        {
            "mesh" : 0,
            "name" : "Icosphere.001",
            "scale" : [
                0.010623235255479813,
                0.00411664554849267,
                0.010623235255479813
            ],
            "translation" : [
                0,
                -0.00018684612587094307,
                0
            ]
        }
    ],
    "materials" : [
        {
            "doubleSided" : true,
            "emissiveFactor" : [
                0,
                0,
                0
            ],
            "name" : "BlkStoneMaterial",
            "pbrMetallicRoughness" : {
                "baseColorFactor" : [
                    0,
                    0,
                    0,
                    1
                ],
                "metallicFactor" : 0,
                "roughnessFactor" : 0.20000000298023224
            }
        }
    ],
    "meshes" : [
        {
            "name" : "Icosphere.014",
            "primitives" : [
                {
                    "attributes" : {
                        "POSITION" : 0,
                        "NORMAL" : 1,
                        "TEXCOORD_0" : 2
                    },
                    "indices" : 3,
                    "material" : 0
                }
            ]
        }
    ],
    "accessors" : [
        {
            "bufferView" : 0,
            "componentType" : 5126,
            "count" : 205,
            "max" : [
                1,
                1.9932948350906372,
                0.9999999403953552
            ],
            "min" : [
                -0.9999999403953552,
                -0.006705164909362793,
                -0.9999999403953552
            ],
            "type" : "VEC3"
        },
        {
            "bufferView" : 1,
            "componentType" : 5126,
            "count" : 205,
            "type" : "VEC3"
        },
        {
            "bufferView" : 2,
            "componentType" : 5126,
            "count" : 205,
            "type" : "VEC2"
        },
        {
            "bufferView" : 3,
            "componentType" : 5123,
            "count" : 960,
            "type" : "SCALAR"
        }
    ],
    "bufferViews" : [
        {
            "buffer" : 0,
            "byteLength" : 2460,
            "byteOffset" : 0
        },
        {
            "buffer" : 0,
            "byteLength" : 2460,
            "byteOffset" : 2460
        },
        {
            "buffer" : 0,
            "byteLength" : 1640,
            "byteOffset" : 4920
        },
        {
            "buffer" : 0,
            "byteLength" : 1920,
            "byteOffset" : 6560
        }
    ],
    "buffers" : [
        {
            "byteLength" : 8480,
            "uri" : "data:application/octet-stream;base64,"
        }
    ]
}
