{
    "asset" : {
        "generator" : "Khronos glTF Blender I/O v1.0.5",
        "version" : "2.0"
    },
    "scene" : 0,
    "scenes" : [
        {
            "name" : "Scene",
            "nodes" : [
                0
            ]
        }
    ],
    "nodes" : [
        {
            "mesh" : 0,
            "name" : "WteStone"
        }
    ],
    "materials" : [
        {
            "doubleSided" : true,
            "name" : "WteStoneMaterial",
            "pbrMetallicRoughness" : {
                "baseColorFactor" : [
                    0.9113926887512207,
                    0.9113926887512207,
                    0.9113926887512207,
                    1
                ],
                "metallicFactor" : 0,
                "roughnessFactor" : 0.25
            }
        }
    ],
    "meshes" : [
        {
            "name" : "Circle.001",
            "primitives" : [
                {
                    "attributes" : {
                        "POSITION" : 0,
                        "NORMAL" : 1,
                        "TEXCOORD_0" : 2
                    },
                    "indices" : 3,
                    "material" : 0
                }
            ]
        }
    ],
    "accessors" : [
        {
            "bufferView" : 0,
            "componentType" : 5126,
            "count" : 504,
            "max" : [
                0.01071925275027752,
                0.007406609132885933,
                0.01071925275027752
            ],
            "min" : [
                -0.01071925275027752,
                9.339080861536786e-05,
                -0.01071925275027752
            ],
            "type" : "VEC3"
        },
        {
            "bufferView" : 1,
            "componentType" : 5126,
            "count" : 504,
            "type" : "VEC3"
        },
        {
            "bufferView" : 2,
            "componentType" : 5126,
            "count" : 504,
            "type" : "VEC2"
        },
        {
            "bufferView" : 3,
            "componentType" : 5123,
            "count" : 1440,
            "type" : "SCALAR"
        }
    ],
    "bufferViews" : [
        {
            "buffer" : 0,
            "byteLength" : 6048,
            "byteOffset" : 0
        },
        {
            "buffer" : 0,
            "byteLength" : 6048,
            "byteOffset" : 6048
        },
        {
            "buffer" : 0,
            "byteLength" : 4032,
            "byteOffset" : 12096
        },
        {
            "buffer" : 0,
            "byteLength" : 2880,
            "byteOffset" : 16128
        }
    ],
    "buffers" : [
        {
            "byteLength" : 19008,
            "uri" : "data:application/octet-stream;base64,"
        }
    ]
}
