{
    "asset" : {
        "generator" : "Khronos glTF Blender I/O v1.1.45",
        "version" : "2.0"
    },
    "scene" : 0,
    "scenes" : [
        {
            "name" : "Scene",
            "nodes" : [
                0
            ]
        }
    ],
    "nodes" : [
        {
            "mesh" : 0,
            "name" : "Cube.012"
        }
    ],
    "materials" : [
        {
            "doubleSided" : true,
            "emissiveFactor" : [
                0,
                0,
                0
            ],
            "name" : "BAKE",
            "normalTexture" : {
                "index" : 0,
                "scale" : 0.4000000059604645,
                "texCoord" : 0
            },
            "pbrMetallicRoughness" : {
                "baseColorTexture" : {
                    "index" : 1,
                    "texCoord" : 0
                },
                "metallicFactor" : 0,
                "roughnessFactor" : 0.5
            }
        }
    ],
    "meshes" : [
        {
            "name" : "Cube.010",
            "primitives" : [
                {
                    "attributes" : {
                        "POSITION" : 0,
                        "NORMAL" : 1,
                        "TEXCOORD_0" : 2
                    },
                    "indices" : 3,
                    "material" : 0
                }
            ]
        }
    ],
    "textures" : [
        {
            "source" : 0
        },
        {
            "source" : 1
        }
    ],
    "images" : [
        {
            "bufferView" : 4,
            "mimeType" : "image/jpeg",
            "name" : "Bake nrml"
        },
        {
            "bufferView" : 5,
            "mimeType" : "image/jpeg",
            "name" : "Bake"
        }
    ],
    "accessors" : [
        {
            "bufferView" : 0,
            "componentType" : 5126,
            "count" : 1767,
            "max" : [
                0.22750000655651093,
                0.2903570234775543,
                0.21150000393390656
            ],
            "min" : [
                -0.22750000655651093,
                0.0006118118762969971,
                -0.21150000393390656
            ],
            "type" : "VEC3"
        },
        {
            "bufferView" : 1,
            "componentType" : 5126,
            "count" : 1767,
            "type" : "VEC3"
        },
        {
            "bufferView" : 2,
            "componentType" : 5126,
            "count" : 1767,
            "type" : "VEC2"
        },
        {
            "bufferView" : 3,
            "componentType" : 5123,
            "count" : 5964,
            "type" : "SCALAR"
        }
    ],
    "bufferViews" : [
        {
            "buffer" : 0,
            "byteLength" : 21204,
            "byteOffset" : 0
        },
        {
            "buffer" : 0,
            "byteLength" : 21204,
            "byteOffset" : 21204
        },
        {
            "buffer" : 0,
            "byteLength" : 14136,
            "byteOffset" : 42408
        },
        {
            "buffer" : 0,
            "byteLength" : 11928,
            "byteOffset" : 56544
        },
        {
            "buffer" : 0,
            "byteLength" : 1454873,
            "byteOffset" : 68472
        },
        {
            "buffer" : 0,
            "byteLength" : 771114,
            "byteOffset" : 1523348
        }
    ],
    "buffers" : [
        {
            "byteLength" : 2294464,
            "uri" : "data:application/octet-stream;base64,"
        }
    ]
}
