{
    "asset" : {
        "generator" : "Khronos glTF Blender I/O v1.1.45",
        "version" : "2.0"
    },
    "scene" : 0,
    "scenes" : [
        {
            "name" : "Scene",
            "nodes" : [
                0
            ]
        }
    ],
    "nodes" : [
        {
            "mesh" : 0,
            "name" : "Cube.002",
            "translation" : [
                0,
                0.18229272961616516,
                0
            ]
        }
    ],
    "materials" : [
        {
            "doubleSided" : true,
            "emissiveFactor" : [
                0,
                0,
                0
            ],
            "name" : "BAKE",
            "normalTexture" : {
                "index" : 0,
                "scale" : 0.4000000059604645,
                "texCoord" : 0
            },
            "pbrMetallicRoughness" : {
                "baseColorTexture" : {
                    "index" : 1,
                    "texCoord" : 0
                },
                "metallicFactor" : 0,
                "roughnessFactor" : 0.5
            }
        }
    ],
    "meshes" : [
        {
            "name" : "Cube.002",
            "primitives" : [
                {
                    "attributes" : {
                        "POSITION" : 0,
                        "NORMAL" : 1,
                        "TEXCOORD_0" : 2
                    },
                    "indices" : 3,
                    "material" : 0
                }
            ]
        }
    ],
    "textures" : [
        {
            "source" : 0
        },
        {
            "source" : 1
        }
    ],
    "images" : [
        {
            "bufferView" : 4,
            "mimeType" : "image/jpeg",
            "name" : "Bake nrml"
        },
        {
            "bufferView" : 5,
            "mimeType" : "image/jpeg",
            "name" : "Bake"
        }
    ],
    "accessors" : [
        {
            "bufferView" : 0,
            "componentType" : 5126,
            "count" : 5246,
            "max" : [
                0.21150001883506775,
                0.1055472195148468,
                0.22750002145767212
            ],
            "min" : [
                -0.21150001883506775,
                -0.18228965997695923,
                -0.22750002145767212
            ],
            "type" : "VEC3"
        },
        {
            "bufferView" : 1,
            "componentType" : 5126,
            "count" : 5246,
            "type" : "VEC3"
        },
        {
            "bufferView" : 2,
            "componentType" : 5126,
            "count" : 5246,
            "type" : "VEC2"
        },
        {
            "bufferView" : 3,
            "componentType" : 5123,
            "count" : 13236,
            "type" : "SCALAR"
        }
    ],
    "bufferViews" : [
        {
            "buffer" : 0,
            "byteLength" : 62952,
            "byteOffset" : 0
        },
        {
            "buffer" : 0,
            "byteLength" : 62952,
            "byteOffset" : 62952
        },
        {
            "buffer" : 0,
            "byteLength" : 41968,
            "byteOffset" : 125904
        },
        {
            "buffer" : 0,
            "byteLength" : 26472,
            "byteOffset" : 167872
        },
        {
            "buffer" : 0,
            "byteLength" : 1454873,
            "byteOffset" : 194344
        },
        {
            "buffer" : 0,
            "byteLength" : 771114,
            "byteOffset" : 1649220
        }
    ],
    "buffers" : [
        {
            "byteLength" : 2420336,
            "uri" : "data:application/octet-stream;base64,"
        }
    ]
}
