{
    "asset" : {
        "generator" : "Khronos glTF Blender I/O v1.1.45",
        "version" : "2.0"
    },
    "scene" : 0,
    "scenes" : [
        {
            "name" : "Scene",
            "nodes" : [
                0
            ]
        }
    ],
    "nodes" : [
        {
            "mesh" : 0,
            "name" : "Cube.009",
            "scale" : [
                6.232644557952881,
                4.668253421783447,
                6.232644557952881
            ],
            "translation" : [
                -0.01444554328918457,
                -9.53376293182373e-05,
                -3.0674011213704944e-05
            ]
        }
    ],
    "materials" : [
        {
            "doubleSided" : true,
            "emissiveFactor" : [
                0,
                0,
                0
            ],
            "name" : "Cushion_BAKE",
            "normalTexture" : {
                "index" : 0,
                "scale" : 0.30000001192092896,
                "texCoord" : 0
            },
            "pbrMetallicRoughness" : {
                "baseColorTexture" : {
                    "index" : 1,
                    "texCoord" : 0
                },
                "metallicFactor" : 0,
                "roughnessFactor" : 1
            }
        }
    ],
    "meshes" : [
        {
            "name" : "Cube.008",
            "primitives" : [
                {
                    "attributes" : {
                        "POSITION" : 0,
                        "NORMAL" : 1,
                        "TEXCOORD_0" : 2,
                        "TEXCOORD_1" : 3
                    },
                    "indices" : 4,
                    "material" : 0
                }
            ]
        }
    ],
    "textures" : [
        {
            "source" : 0
        },
        {
            "source" : 1
        }
    ],
    "images" : [
        {
            "bufferView" : 5,
            "mimeType" : "image/jpeg",
            "name" : "Pillow_normal_bake"
        },
        {
            "bufferView" : 6,
            "mimeType" : "image/jpeg",
            "name" : "Pillow_bake"
        }
    ],
    "accessors" : [
        {
            "bufferView" : 0,
            "componentType" : 5126,
            "count" : 1583,
            "max" : [
                0.21207761764526367,
                0.17284280061721802,
                0.21552258729934692
            ],
            "min" : [
                -0.2171700894832611,
                -0.00520144309848547,
                -0.2181037962436676
            ],
            "type" : "VEC3"
        },
        {
            "bufferView" : 1,
            "componentType" : 5126,
            "count" : 1583,
            "type" : "VEC3"
        },
        {
            "bufferView" : 2,
            "componentType" : 5126,
            "count" : 1583,
            "type" : "VEC2"
        },
        {
            "bufferView" : 3,
            "componentType" : 5126,
            "count" : 1583,
            "type" : "VEC2"
        },
        {
            "bufferView" : 4,
            "componentType" : 5123,
            "count" : 7614,
            "type" : "SCALAR"
        }
    ],
    "bufferViews" : [
        {
            "buffer" : 0,
            "byteLength" : 18996,
            "byteOffset" : 0
        },
        {
            "buffer" : 0,
            "byteLength" : 18996,
            "byteOffset" : 18996
        },
        {
            "buffer" : 0,
            "byteLength" : 12664,
            "byteOffset" : 37992
        },
        {
            "buffer" : 0,
            "byteLength" : 12664,
            "byteOffset" : 50656
        },
        {
            "buffer" : 0,
            "byteLength" : 15228,
            "byteOffset" : 63320
        },
        {
            "buffer" : 0,
            "byteLength" : 469597,
            "byteOffset" : 78548
        },
        {
            "buffer" : 0,
            "byteLength" : 105121,
            "byteOffset" : 548148
        }
    ],
    "buffers" : [
        {
            "byteLength" : 653272,
            "uri" : "data:application/octet-stream;base64,"
        }
    ]
}
