{
    "asset" : {
        "generator" : "Khronos glTF Blender I/O v1.1.45",
        "version" : "2.0"
    },
    "scene" : 0,
    "scenes" : [
        {
            "name" : "Scene",
            "nodes" : [
                0
            ]
        }
    ],
    "nodes" : [
        {
            "mesh" : 0,
            "name" : "Plane.006"
        }
    ],
    "materials" : [
        {
            "doubleSided" : true,
            "emissiveFactor" : [
                0,
                0,
                0
            ],
            "name" : "Drevo.suche.001",
            "normalTexture" : {
                "index" : 0,
                "texCoord" : 0
            },
            "pbrMetallicRoughness" : {
                "baseColorTexture" : {
                    "index" : 1,
                    "texCoord" : 0
                },
                "metallicFactor" : 0,
                "roughnessFactor" : 1
            }
        },
        {
            "doubleSided" : true,
            "emissiveFactor" : [
                0,
                0,
                0
            ],
            "name" : "Material.002",
            "pbrMetallicRoughness" : {
                "baseColorFactor" : [
                    0.8202338814735413,
                    0.8034576177597046,
                    0.7543379664421082,
                    1
                ],
                "metallicFactor" : 0,
                "roughnessFactor" : 1
            }
        }
    ],
    "meshes" : [
        {
            "name" : "Plane.005",
            "primitives" : [
                {
                    "attributes" : {
                        "POSITION" : 0,
                        "NORMAL" : 1,
                        "TEXCOORD_0" : 2
                    },
                    "indices" : 3,
                    "material" : 0
                },
                {
                    "attributes" : {
                        "POSITION" : 4,
                        "NORMAL" : 5,
                        "TEXCOORD_0" : 6
                    },
                    "indices" : 7,
                    "material" : 1
                }
            ]
        }
    ],
    "textures" : [
        {
            "source" : 0
        },
        {
            "source" : 1
        }
    ],
    "images" : [
        {
            "bufferView" : 4,
            "mimeType" : "image/png",
            "name" : "TexturesCom_Wood_Rough_1K_normal"
        },
        {
            "bufferView" : 5,
            "mimeType" : "image/jpeg",
            "name" : "WoodFine22_COL_3K - dark"
        }
    ],
    "accessors" : [
        {
            "bufferView" : 0,
            "componentType" : 5126,
            "count" : 4018,
            "max" : [
                1.049511432647705,
                1.946642518043518,
                0.03736956790089607
            ],
            "min" : [
                -1.0458256006240845,
                0.005713827908039093,
                -0.026977168396115303
            ],
            "type" : "VEC3"
        },
        {
            "bufferView" : 1,
            "componentType" : 5126,
            "count" : 4018,
            "type" : "VEC3"
        },
        {
            "bufferView" : 2,
            "componentType" : 5126,
            "count" : 4018,
            "type" : "VEC2"
        },
        {
            "bufferView" : 3,
            "componentType" : 5123,
            "count" : 13662,
            "type" : "SCALAR"
        },
        {
            "bufferView" : 6,
            "componentType" : 5126,
            "count" : 4,
            "max" : [
                0.9085246324539185,
                1.930292010307312,
                -0.009235978126525879
            ],
            "min" : [
                -0.9090865850448608,
                0.4254440367221832,
                -0.009235978126525879
            ],
            "type" : "VEC3"
        },
        {
            "bufferView" : 7,
            "componentType" : 5126,
            "count" : 4,
            "type" : "VEC3"
        },
        {
            "bufferView" : 8,
            "componentType" : 5126,
            "count" : 4,
            "type" : "VEC2"
        },
        {
            "bufferView" : 9,
            "componentType" : 5123,
            "count" : 6,
            "type" : "SCALAR"
        }
    ],
    "bufferViews" : [
        {
            "buffer" : 0,
            "byteLength" : 48216,
            "byteOffset" : 0
        },
        {
            "buffer" : 0,
            "byteLength" : 48216,
            "byteOffset" : 48216
        },
        {
            "buffer" : 0,
            "byteLength" : 32144,
            "byteOffset" : 96432
        },
        {
            "buffer" : 0,
            "byteLength" : 27324,
            "byteOffset" : 128576
        },
        {
            "buffer" : 0,
            "byteLength" : 1618860,
            "byteOffset" : 155900
        },
        {
            "buffer" : 0,
            "byteLength" : 375095,
            "byteOffset" : 1774760
        },
        {
            "buffer" : 0,
            "byteLength" : 48,
            "byteOffset" : 2149856
        },
        {
            "buffer" : 0,
            "byteLength" : 48,
            "byteOffset" : 2149904
        },
        {
            "buffer" : 0,
            "byteLength" : 32,
            "byteOffset" : 2149952
        },
        {
            "buffer" : 0,
            "byteLength" : 12,
            "byteOffset" : 2149984
        }
    ],
    "buffers" : [
        {
            "byteLength" : 2149996,
            "uri" : "data:application/octet-stream;base64,"
        }
    ]
}
