{
    "asset" : {
        "generator" : "Khronos glTF Blender I/O v1.1.45",
        "version" : "2.0"
    },
    "scene" : 0,
    "scenes" : [
        {
            "name" : "Scene",
            "nodes" : [
                0
            ]
        }
    ],
    "nodes" : [
        {
            "mesh" : 0,
            "name" : "Cube.003",
            "translation" : [
                0.009747982025146484,
                0,
                0
            ]
        }
    ],
    "materials" : [
        {
            "doubleSided" : true,
            "emissiveFactor" : [
                0,
                0,
                0
            ],
            "name" : "Konvicka",
            "pbrMetallicRoughness" : {
                "baseColorFactor" : [
                    0.014960948377847672,
                    0.014960948377847672,
                    0.014960948377847672,
                    1
                ],
                "metallicFactor" : 0,
                "roughnessFactor" : 0.6090909242630005
            }
        },
        {
            "doubleSided" : true,
            "emissiveFactor" : [
                0,
                0,
                0
            ],
            "name" : "Drevo_teaset",
            "pbrMetallicRoughness" : {
                "baseColorTexture" : {
                    "index" : 0,
                    "texCoord" : 0
                },
                "metallicFactor" : 0,
                "roughnessFactor" : 0.699999988079071
            }
        },
        {
            "doubleSided" : true,
            "emissiveFactor" : [
                0,
                0,
                0
            ],
            "name" : "Material.002",
            "pbrMetallicRoughness" : {
                "baseColorFactor" : [
                    0.5794471502304077,
                    0.5794471502304077,
                    0.5794471502304077,
                    1
                ],
                "metallicFactor" : 0,
                "roughnessFactor" : 1
            }
        },
        {
            "doubleSided" : true,
            "emissiveFactor" : [
                0,
                0,
                0
            ],
            "name" : "Cerny kov",
            "pbrMetallicRoughness" : {
                "baseColorFactor" : [
                    0.003093291772529483,
                    0.003093291772529483,
                    0.003093291772529483,
                    1
                ],
                "metallicFactor" : 0,
                "roughnessFactor" : 0.5
            }
        }
    ],
    "meshes" : [
        {
            "name" : "Cube.017",
            "primitives" : [
                {
                    "attributes" : {
                        "POSITION" : 0,
                        "NORMAL" : 1,
                        "TEXCOORD_0" : 2
                    },
                    "indices" : 3,
                    "material" : 0
                },
                {
                    "attributes" : {
                        "POSITION" : 4,
                        "NORMAL" : 5,
                        "TEXCOORD_0" : 6
                    },
                    "indices" : 7,
                    "material" : 1
                },
                {
                    "attributes" : {
                        "POSITION" : 8,
                        "NORMAL" : 9,
                        "TEXCOORD_0" : 10
                    },
                    "indices" : 11,
                    "material" : 2
                },
                {
                    "attributes" : {
                        "POSITION" : 12,
                        "NORMAL" : 13,
                        "TEXCOORD_0" : 14
                    },
                    "indices" : 15,
                    "material" : 3
                }
            ]
        }
    ],
    "textures" : [
        {
            "source" : 0
        }
    ],
    "images" : [
        {
            "bufferView" : 8,
            "mimeType" : "image/jpeg",
            "name" : "Teaset_bake"
        }
    ],
    "accessors" : [
        {
            "bufferView" : 0,
            "componentType" : 5126,
            "count" : 2486,
            "max" : [
                0.2529423236846924,
                0.12547734379768372,
                0.15294232964515686
            ],
            "min" : [
                -0.2529423236846924,
                -0.0029018528293818235,
                -0.15294232964515686
            ],
            "type" : "VEC3"
        },
        {
            "bufferView" : 1,
            "componentType" : 5126,
            "count" : 2486,
            "type" : "VEC3"
        },
        {
            "bufferView" : 2,
            "componentType" : 5126,
            "count" : 2486,
            "type" : "VEC2"
        },
        {
            "bufferView" : 3,
            "componentType" : 5123,
            "count" : 8250,
            "type" : "SCALAR"
        },
        {
            "bufferView" : 4,
            "componentType" : 5126,
            "count" : 136,
            "max" : [
                0.24407729506492615,
                0.040201034396886826,
                0.14287716150283813
            ],
            "min" : [
                -0.24407732486724854,
                0.012522535398602486,
                -0.14287716150283813
            ],
            "type" : "VEC3"
        },
        {
            "bufferView" : 5,
            "componentType" : 5126,
            "count" : 136,
            "type" : "VEC3"
        },
        {
            "bufferView" : 6,
            "componentType" : 5126,
            "count" : 136,
            "type" : "VEC2"
        },
        {
            "bufferView" : 7,
            "componentType" : 5123,
            "count" : 228,
            "type" : "SCALAR"
        },
        {
            "bufferView" : 9,
            "componentType" : 5126,
            "count" : 3561,
            "max" : [
                0.21339979767799377,
                0.12502659857273102,
                0.1222410798072815
            ],
            "min" : [
                -0.20859494805335999,
                0.04106481745839119,
                -0.12076713144779205
            ],
            "type" : "VEC3"
        },
        {
            "bufferView" : 10,
            "componentType" : 5126,
            "count" : 3561,
            "type" : "VEC3"
        },
        {
            "bufferView" : 11,
            "componentType" : 5126,
            "count" : 3561,
            "type" : "VEC2"
        },
        {
            "bufferView" : 12,
            "componentType" : 5123,
            "count" : 11448,
            "type" : "SCALAR"
        },
        {
            "bufferView" : 13,
            "componentType" : 5126,
            "count" : 192,
            "max" : [
                -0.13520769774913788,
                0.11416005343198776,
                0.051040612161159515
            ],
            "min" : [
                -0.211391881108284,
                0.04106481745839119,
                -0.03933711349964142
            ],
            "type" : "VEC3"
        },
        {
            "bufferView" : 14,
            "componentType" : 5126,
            "count" : 192,
            "type" : "VEC3"
        },
        {
            "bufferView" : 15,
            "componentType" : 5126,
            "count" : 192,
            "type" : "VEC2"
        },
        {
            "bufferView" : 16,
            "componentType" : 5123,
            "count" : 786,
            "type" : "SCALAR"
        }
    ],
    "bufferViews" : [
        {
            "buffer" : 0,
            "byteLength" : 29832,
            "byteOffset" : 0
        },
        {
            "buffer" : 0,
            "byteLength" : 29832,
            "byteOffset" : 29832
        },
        {
            "buffer" : 0,
            "byteLength" : 19888,
            "byteOffset" : 59664
        },
        {
            "buffer" : 0,
            "byteLength" : 16500,
            "byteOffset" : 79552
        },
        {
            "buffer" : 0,
            "byteLength" : 1632,
            "byteOffset" : 96052
        },
        {
            "buffer" : 0,
            "byteLength" : 1632,
            "byteOffset" : 97684
        },
        {
            "buffer" : 0,
            "byteLength" : 1088,
            "byteOffset" : 99316
        },
        {
            "buffer" : 0,
            "byteLength" : 456,
            "byteOffset" : 100404
        },
        {
            "buffer" : 0,
            "byteLength" : 124977,
            "byteOffset" : 100860
        },
        {
            "buffer" : 0,
            "byteLength" : 42732,
            "byteOffset" : 225840
        },
        {
            "buffer" : 0,
            "byteLength" : 42732,
            "byteOffset" : 268572
        },
        {
            "buffer" : 0,
            "byteLength" : 28488,
            "byteOffset" : 311304
        },
        {
            "buffer" : 0,
            "byteLength" : 22896,
            "byteOffset" : 339792
        },
        {
            "buffer" : 0,
            "byteLength" : 2304,
            "byteOffset" : 362688
        },
        {
            "buffer" : 0,
            "byteLength" : 2304,
            "byteOffset" : 364992
        },
        {
            "buffer" : 0,
            "byteLength" : 1536,
            "byteOffset" : 367296
        },
        {
            "buffer" : 0,
            "byteLength" : 1572,
            "byteOffset" : 368832
        }
    ],
    "buffers" : [
        {
            "byteLength" : 370404,
            "uri" : "data:application/octet-stream;base64,"
        }
    ]
}
